# xmcd
#
# Track frame offsets: 
#        150
#        35071
#        50128
#        80514
#        102127
#        131824
#        149807
#        170226
#        210597
#        237696
#        261107
#
# Disc length: 3726 seconds
#
# Revision: 1
# Processed by: cddbd v1.5.2PL0 Copyright (c) Steve Scherf et al.
# Submitted via: ExactAudioCopy v1.3
#
DISCID=b20e8c0b
DTITLE=Tom Waits - New York ('76)
DYEAR=2017
DGENRE=Blues
TTITLE0=Emotional Weather Report
TTITLE1=A Sight for Sore Eyes
TTITLE2=Step Right Up
TTITLE3=Eggs and Sausage - Invitaion to the Blues
TTITLE4=Jitterbug Boy
TTITLE5=Diamonds on My Windshield
TTITLE6=San Diego Serenade
TTITLE7=Tom Traubert's Blues
TTITLE8=New Coat of Paint
TTITLE9=The Piano Has Been Drinking (Not Me)
TTITLE10=I Can't Wait to Get Off Work
EXTD=
EXTT0=
EXTT1=
EXTT2=
EXTT3=
EXTT4=
EXTT5=
EXTT6=
EXTT7=
EXTT8=
EXTT9=
EXTT10=
PLAYORDER=
